<svg width="225" height="34" viewBox="0 0 225 34" fill="none" xmlns="http://www.w3.org/2000/svg">
<g filter="url(#filter0_d)">
<path d="M17.532 25L16.2 20.212H10.8L9.432 25H4.896L12.276 2.5H14.76L22.14 25H17.532ZM13.536 10.6L11.7 17.008H15.3L13.536 10.6ZM30.024 25.432C28.296 25.432 26.868 24.868 25.74 23.74C24.636 22.612 24.084 20.776 24.084 18.232V8.152H28.692V18.232C28.692 19.528 28.896 20.452 29.304 21.004C29.736 21.532 30.264 21.796 30.888 21.796C31.872 21.796 32.628 21.472 33.156 20.824C33.708 20.152 33.984 19.156 33.984 17.836V8.152H38.592V22.3C38.592 22.852 38.604 23.344 38.628 23.776C38.676 24.184 38.784 24.592 38.952 25H34.812C34.62 24.664 34.512 24.328 34.488 23.992C34.464 23.632 34.452 23.284 34.452 22.948C33.948 23.788 33.288 24.412 32.472 24.82C31.68 25.228 30.864 25.432 30.024 25.432ZM51.264 25.396C50.016 25.396 48.948 25.132 48.06 24.604C47.196 24.076 46.548 23.164 46.116 21.868C45.684 20.548 45.516 18.736 45.612 16.432L45.792 11.752H42.408L42.48 8.152H45.936L46.116 4.264L50.796 3.652L51.12 3.616L51.156 4.012C51.036 4.156 50.928 4.324 50.832 4.516C50.76 4.684 50.712 4.972 50.688 5.38L50.472 8.152H55.728L55.656 11.752H50.4L50.184 16.252C50.112 17.716 50.16 18.856 50.328 19.672C50.52 20.464 50.796 21.016 51.156 21.328C51.516 21.616 51.924 21.76 52.38 21.76C53.124 21.76 53.808 21.604 54.432 21.292C55.056 20.98 55.608 20.62 56.088 20.212L56.952 23.488C56.112 24.088 55.224 24.556 54.288 24.892C53.376 25.228 52.368 25.396 51.264 25.396ZM60.264 0.771999H65.196V1.132C65.052 1.276 64.956 1.444 64.908 1.636C64.884 1.804 64.872 2.08 64.872 2.464V10.096C65.472 9.28 66.204 8.692 67.068 8.332C67.932 7.948 68.784 7.756 69.624 7.756C71.28 7.756 72.6 8.308 73.584 9.412C74.592 10.516 75.096 12.328 75.096 14.848V25H70.488V14.884C70.488 13.516 70.296 12.556 69.912 12.004C69.552 11.452 69.036 11.176 68.364 11.176C67.332 11.176 66.492 11.548 65.844 12.292C65.196 13.012 64.872 14.02 64.872 15.316V25H60.264V0.771999Z" fill="#645CFF"/>
<path d="M79.524 25L76.788 2.572H80.676L81.936 16.288L84.564 4.372H87.156L89.82 16.216L90.684 2.572H94.392L91.728 25H88.632L85.68 11.428L82.692 25H79.524ZM103.464 25.396C101.952 25.396 100.584 25.036 99.36 24.316C98.136 23.572 97.164 22.54 96.444 21.22C95.724 19.9 95.364 18.352 95.364 16.576C95.364 14.92 95.724 13.432 96.444 12.112C97.164 10.768 98.136 9.712 99.36 8.944C100.584 8.152 101.952 7.756 103.464 7.756C104.976 7.756 106.344 8.152 107.568 8.944C108.816 9.712 109.8 10.768 110.52 12.112C111.264 13.432 111.636 14.92 111.636 16.576C111.636 18.328 111.264 19.864 110.52 21.184C109.8 22.504 108.816 23.536 107.568 24.28C106.344 25.024 104.976 25.396 103.464 25.396ZM103.464 21.76C104.52 21.76 105.384 21.292 106.056 20.356C106.752 19.396 107.1 18.136 107.1 16.576C107.1 14.944 106.752 13.672 106.056 12.76C105.384 11.848 104.52 11.392 103.464 11.392C102.456 11.392 101.604 11.848 100.908 12.76C100.236 13.672 99.9 14.944 99.9 16.576C99.9 18.136 100.236 19.396 100.908 20.356C101.58 21.292 102.432 21.76 103.464 21.76ZM115.344 8.152H120.06V10.78C120.516 9.844 121.164 9.112 122.004 8.584C122.868 8.032 123.78 7.756 124.74 7.756C125.7 7.756 126.564 7.912 127.332 8.224C128.1 8.512 128.808 9.004 129.456 9.7L127.548 13.588L127.44 13.876L127.08 13.732C127.008 13.54 126.936 13.336 126.864 13.12C126.816 12.904 126.66 12.652 126.396 12.364C126.06 12.1 125.7 11.896 125.316 11.752C124.932 11.584 124.512 11.5 124.056 11.5C122.928 11.5 121.968 11.872 121.176 12.616C120.384 13.36 119.988 14.56 119.988 16.216V25H115.344V8.152ZM137.916 17.62L136.836 18.7V25H132.228V0.771999H137.124V1.132C137.004 1.276 136.92 1.444 136.872 1.636C136.848 1.804 136.836 2.08 136.836 2.464V13.732L142.668 7.972C143.052 8.068 143.508 8.14 144.036 8.188C144.564 8.236 144.972 8.26 145.26 8.26H147.528L140.976 14.812L148.356 24.964L143.316 25.144L137.916 17.62ZM153.216 11.716H149.58V8.152H153.216V7.252C153.216 5.74 153.552 4.48 154.224 3.472C154.92 2.464 155.82 1.72 156.924 1.24C158.028 0.735998 159.204 0.483998 160.452 0.483998C161.604 0.483998 162.672 0.687998 163.656 1.096C164.664 1.504 165.516 2.08 166.212 2.824L164.628 5.884L164.448 6.172L164.16 5.992C164.088 5.824 164.004 5.656 163.908 5.488C163.812 5.296 163.608 5.068 163.296 4.804C162.888 4.54 162.48 4.348 162.072 4.228C161.664 4.108 161.208 4.048 160.704 4.048C159.768 4.048 159.036 4.324 158.508 4.876C158.004 5.428 157.752 6.22 157.752 7.252V8.152H162.72V11.716H157.752V25H153.216V11.716ZM168.552 25V21.4H173.232V4.372H168.768V0.771999H177.84V21.4H182.448V25H168.552ZM193.464 25.396C191.952 25.396 190.584 25.036 189.36 24.316C188.136 23.572 187.164 22.54 186.444 21.22C185.724 19.9 185.364 18.352 185.364 16.576C185.364 14.92 185.724 13.432 186.444 12.112C187.164 10.768 188.136 9.712 189.36 8.944C190.584 8.152 191.952 7.756 193.464 7.756C194.976 7.756 196.344 8.152 197.568 8.944C198.816 9.712 199.8 10.768 200.52 12.112C201.264 13.432 201.636 14.92 201.636 16.576C201.636 18.328 201.264 19.864 200.52 21.184C199.8 22.504 198.816 23.536 197.568 24.28C196.344 25.024 194.976 25.396 193.464 25.396ZM193.464 21.76C194.52 21.76 195.384 21.292 196.056 20.356C196.752 19.396 197.1 18.136 197.1 16.576C197.1 14.944 196.752 13.672 196.056 12.76C195.384 11.848 194.52 11.392 193.464 11.392C192.456 11.392 191.604 11.848 190.908 12.76C190.236 13.672 189.9 14.944 189.9 16.576C189.9 18.136 190.236 19.396 190.908 20.356C191.58 21.292 192.432 21.76 193.464 21.76ZM205.74 25L202.752 8.152H206.676L208.332 19.024L210.6 10.132H212.904L215.46 18.916C215.7 17.068 215.88 15.544 216 14.344C216.12 13.144 216.192 12.16 216.216 11.392C216.264 10.6 216.288 9.892 216.288 9.268V8.152H220.104C220.008 9.904 219.828 11.752 219.564 13.696C219.3 15.64 219 17.584 218.664 19.528C218.328 21.472 218.004 23.296 217.692 25H213.768L211.68 16.468L209.736 25H205.74Z" fill="#333538"/>
</g>
<defs>
<filter id="filter0_d" x="0.895996" y="0.484009" width="223.208" height="32.948" filterUnits="userSpaceOnUse" color-interpolation-filters="sRGB">
<feFlood flood-opacity="0" result="BackgroundImageFix"/>
<feColorMatrix in="SourceAlpha" type="matrix" values="0 0 0 0 0 0 0 0 0 0 0 0 0 0 0 0 0 0 127 0" result="hardAlpha"/>
<feOffset dy="4"/>
<feGaussianBlur stdDeviation="2"/>
<feColorMatrix type="matrix" values="0 0 0 0 0 0 0 0 0 0 0 0 0 0 0 0 0 0 0.25 0"/>
<feBlend mode="normal" in2="BackgroundImageFix" result="effect1_dropShadow"/>
<feBlend mode="normal" in="SourceGraphic" in2="effect1_dropShadow" result="shape"/>
</filter>
</defs>
</svg>
