<svg width="181" height="50" viewBox="0 0 181 50" fill="none" xmlns="http://www.w3.org/2000/svg">
<path d="M78.55 16.45V28.4C78.55 30.25 78.025 31.675 76.975 32.675C75.9417 33.675 74.5417 34.175 72.775 34.175C70.925 34.175 69.4417 33.65 68.325 32.6C67.2083 31.55 66.65 30.0583 66.65 28.125H70.9C70.9 28.8583 71.05 29.4167 71.35 29.8C71.65 30.1667 72.0833 30.35 72.65 30.35C73.1667 30.35 73.5667 30.1833 73.85 29.85C74.1333 29.5167 74.275 29.0333 74.275 28.4V16.45H78.55ZM90.8531 34.2C89.4865 34.2 88.2531 33.9083 87.1531 33.325C86.0698 32.7417 85.2115 31.9083 84.5781 30.825C83.9615 29.7417 83.6531 28.475 83.6531 27.025C83.6531 25.5917 83.9698 24.3333 84.6031 23.25C85.2365 22.15 86.1031 21.3083 87.2031 20.725C88.3031 20.1417 89.5365 19.85 90.9031 19.85C92.2698 19.85 93.5031 20.1417 94.6031 20.725C95.7031 21.3083 96.5698 22.15 97.2031 23.25C97.8365 24.3333 98.1531 25.5917 98.1531 27.025C98.1531 28.4583 97.8281 29.725 97.1781 30.825C96.5448 31.9083 95.6698 32.7417 94.5531 33.325C93.4531 33.9083 92.2198 34.2 90.8531 34.2ZM90.8531 30.5C91.6698 30.5 92.3615 30.2 92.9281 29.6C93.5115 29 93.8031 28.1417 93.8031 27.025C93.8031 25.9083 93.5198 25.05 92.9531 24.45C92.4031 23.85 91.7198 23.55 90.9031 23.55C90.0698 23.55 89.3781 23.85 88.8281 24.45C88.2781 25.0333 88.0031 25.8917 88.0031 27.025C88.0031 28.1417 88.2698 29 88.8031 29.6C89.3531 30.2 90.0365 30.5 90.8531 30.5ZM107.196 22.025C107.596 21.375 108.171 20.85 108.921 20.45C109.671 20.05 110.529 19.85 111.496 19.85C112.646 19.85 113.688 20.1417 114.621 20.725C115.554 21.3083 116.288 22.1417 116.821 23.225C117.371 24.3083 117.646 25.5667 117.646 27C117.646 28.4333 117.371 29.7 116.821 30.8C116.288 31.8833 115.554 32.725 114.621 33.325C113.688 33.9083 112.646 34.2 111.496 34.2C110.513 34.2 109.654 34.0083 108.921 33.625C108.188 33.225 107.613 32.7 107.196 32.05V34H102.921V15.5H107.196V22.025ZM113.296 27C113.296 25.9333 112.996 25.1 112.396 24.5C111.813 23.8833 111.088 23.575 110.221 23.575C109.371 23.575 108.646 23.8833 108.046 24.5C107.463 25.1167 107.171 25.9583 107.171 27.025C107.171 28.0917 107.463 28.9333 108.046 29.55C108.646 30.1667 109.371 30.475 110.221 30.475C111.071 30.475 111.796 30.1667 112.396 29.55C112.996 28.9167 113.296 28.0667 113.296 27ZM128.064 34.2C126.847 34.2 125.764 33.9917 124.814 33.575C123.864 33.1583 123.114 32.5917 122.564 31.875C122.014 31.1417 121.706 30.325 121.639 29.425H125.864C125.914 29.9083 126.139 30.3 126.539 30.6C126.939 30.9 127.431 31.05 128.014 31.05C128.547 31.05 128.956 30.95 129.239 30.75C129.539 30.5333 129.689 30.2583 129.689 29.925C129.689 29.525 129.481 29.2333 129.064 29.05C128.647 28.85 127.972 28.6333 127.039 28.4C126.039 28.1667 125.206 27.925 124.539 27.675C123.872 27.4083 123.297 27 122.814 26.45C122.331 25.8833 122.089 25.125 122.089 24.175C122.089 23.375 122.306 22.65 122.739 22C123.189 21.3333 123.839 20.8083 124.689 20.425C125.556 20.0417 126.581 19.85 127.764 19.85C129.514 19.85 130.889 20.2833 131.889 21.15C132.906 22.0167 133.489 23.1667 133.639 24.6H129.689C129.622 24.1167 129.406 23.7333 129.039 23.45C128.689 23.1667 128.222 23.025 127.639 23.025C127.139 23.025 126.756 23.125 126.489 23.325C126.222 23.5083 126.089 23.7667 126.089 24.1C126.089 24.5 126.297 24.8 126.714 25C127.147 25.2 127.814 25.4 128.714 25.6C129.747 25.8667 130.589 26.1333 131.239 26.4C131.889 26.65 132.456 27.0667 132.939 27.65C133.439 28.2167 133.697 28.9833 133.714 29.95C133.714 30.7667 133.481 31.5 133.014 32.15C132.564 32.7833 131.906 33.2833 131.039 33.65C130.189 34.0167 129.197 34.2 128.064 34.2ZM146.604 30.375V34H144.429C142.879 34 141.671 33.625 140.804 32.875C139.938 32.1083 139.504 30.8667 139.504 29.15V23.6H137.804V20.05H139.504V16.65H143.779V20.05H146.579V23.6H143.779V29.2C143.779 29.6167 143.879 29.9167 144.079 30.1C144.279 30.2833 144.613 30.375 145.079 30.375H146.604ZM164.636 26.8C164.636 27.2 164.611 27.6167 164.561 28.05H154.886C154.952 28.9167 155.227 29.5833 155.711 30.05C156.211 30.5 156.819 30.725 157.536 30.725C158.602 30.725 159.344 30.275 159.761 29.375H164.311C164.077 30.2917 163.652 31.1167 163.036 31.85C162.436 32.5833 161.677 33.1583 160.761 33.575C159.844 33.9917 158.819 34.2 157.686 34.2C156.319 34.2 155.102 33.9083 154.036 33.325C152.969 32.7417 152.136 31.9083 151.536 30.825C150.936 29.7417 150.636 28.475 150.636 27.025C150.636 25.575 150.927 24.3083 151.511 23.225C152.111 22.1417 152.944 21.3083 154.011 20.725C155.077 20.1417 156.302 19.85 157.686 19.85C159.036 19.85 160.236 20.1333 161.286 20.7C162.336 21.2667 163.152 22.075 163.736 23.125C164.336 24.175 164.636 25.4 164.636 26.8ZM160.261 25.675C160.261 24.9417 160.011 24.3583 159.511 23.925C159.011 23.4917 158.386 23.275 157.636 23.275C156.919 23.275 156.311 23.4833 155.811 23.9C155.327 24.3167 155.027 24.9083 154.911 25.675H160.261ZM173.666 22.375C174.166 21.6083 174.791 21.0083 175.541 20.575C176.291 20.125 177.124 19.9 178.041 19.9V24.425H176.866C175.799 24.425 174.999 24.6583 174.466 25.125C173.932 25.575 173.666 26.375 173.666 27.525V34H169.391V20.05H173.666V22.375Z" fill="#3B82F6"/>
<rect width="50" height="50" rx="10" fill="#3B82F6"/>
<path d="M26.0039 9.5625H31.8633V29.25C31.8633 31.0599 31.4596 32.6615 30.6523 34.0547C29.8581 35.4349 28.7318 36.5026 27.2734 37.2578C25.8151 38.013 24.168 38.3906 22.332 38.3906C19.3242 38.3906 16.9805 37.6289 15.3008 36.1055C13.6211 34.569 12.7812 32.401 12.7812 29.6016H18.6797C18.6797 30.9948 18.9727 32.0234 19.5586 32.6875C20.1445 33.3516 21.069 33.6836 22.332 33.6836C23.4518 33.6836 24.3438 33.2995 25.0078 32.5312C25.6719 31.763 26.0039 30.6693 26.0039 29.25V9.5625Z" fill="white"/>
</svg>
