<svg xmlns="http://www.w3.org/2000/svg" data-name="Layer 1" width="567.33753" height="478.01621" viewBox="0 0 567.33753 478.01621" xmlns:xlink="http://www.w3.org/1999/xlink"><path d="M441.80646,255.71162c-3.52922-12.86713,24.9356-23.90094,32.41041-13.539,1.03939-1.47315,4.88056-2.368,6.643-1.91606a13.74418,13.74418,0,0,1,4.69075,2.67528c1.98838,1.52743,4.049,3.10909,5.26914,5.30532,1.22921,2.1872,1.419,5.16979-.23494,7.06776-1.31053,1.50934-5.17884,2.48546-7.14913,2.88314-1.37374.28018-2.53064.50613-3.5248.66881a6.73914,6.73914,0,0,1-1.175-4.45575,5.46972,5.46972,0,0,0-2.386,4.01289c-.02714.3344,11.10773,41.30387,11.10773,41.30387a24.28681,24.28681,0,0,1-4.20271,1.88892,52.848,52.848,0,0,1-6.55258-14.2801,45.762,45.762,0,0,0,.12654,10.1678,55.94778,55.94778,0,0,0,.958,5.63069c-13.23171,2.856-33.13345,1.91611-41.79191-10.231l-.00436-.15087a2.067,2.067,0,0,0-3.993-.72082c-.21008.53592-.40341.9998-.57594,1.36877C428.90016,284.37123,432.16288,273.9323,441.80646,255.71162Z" transform="translate(-316.33123 -210.99189)" fill="#2f2e41"/><polygon points="187.875 456.283 197.734 456.2 202.098 417.287 187.548 417.41 187.875 456.283" fill="#ffb6b6"/><path d="M533.85336,679.3431,518.1076,668.66324l-.05942-7.05495-3.38609.22675-10.49558.7235-2.57316.17119-1.86759,24.93457,7.396-.06707,1.26029-6.991,3.43148,6.95557,19.6013-.16355a4.40843,4.40843,0,0,0,2.43855-8.0551Z" transform="translate(-316.33123 -210.99189)" fill="#2f2e41"/><polygon points="89.571 452.439 99.318 453.92 109.798 416.192 95.412 414.006 89.571 452.439" fill="#ffb6b6"/><path d="M433.26053,680.04779l-13.85287-13.04173,1.06012-6.97509-3.3792-.3131-10.4775-.95007-2.56775-.239-5.79815,24.32287,7.313,1.10665,2.353-6.70271,2.285,7.41171,19.37919,2.947a4.40843,4.40843,0,0,0,3.6851-7.56645Z" transform="translate(-316.33123 -210.99189)" fill="#2f2e41"/><path d="M499.67192,395.41264l27.95281,50.06412s-1.16636,102.9647,2.54851,106.7837,7.07835,7.24421,3.71487,7.21334-7.43443,8.15323-7.43443,8.15323l-6.957,77.36439h-17.543s-12.344-45.623-9.71291-71.64l-20.7821-95.07681S456.5282,568.188,453.83742,570.87875s-4.31392,2.67163-1.48427,5.372,0,8.80758,0,8.80758l-29.49756,61.22087-16-2.01786s2.77383-49.97893,12.433-71.43483V471.43165c-.7276,8.69349,33.30327-79.29559,12.49294-72.69149C438.36543,396.65077,499.67192,395.41264,499.67192,395.41264Z" transform="translate(-316.33123 -210.99189)" fill="#2f2e41"/><path d="M422.31825,481.80526a6.82106,6.82106,0,0,0-.70245-9.48793,6.544,6.544,0,0,0-.87624-.63441l4.75113-23.31742-10.98351-6.57368-3.055,32.64564a6.80215,6.80215,0,0,0,1.56779,8.15507,6.50964,6.50964,0,0,0,9.183-.65062Q422.26153,481.87438,422.31825,481.80526Z" transform="translate(-316.33123 -210.99189)" fill="#ffb6b6"/><path d="M593.23273,430.7538a6.82106,6.82106,0,0,1-5.81566-7.52944,6.54326,6.54326,0,0,1,.22821-1.05744l-19.1125-14.177,3.78154-12.2291,24.08207,22.25141a6.80214,6.80214,0,0,1,4.28133,7.1157,6.50963,6.50963,0,0,1-7.2679,5.65052Q593.32111,430.76733,593.23273,430.7538Z" transform="translate(-316.33123 -210.99189)" fill="#ffb6b6"/><circle cx="147.59363" cy="59.32154" r="23.18303" fill="#ffb6b6"/><path d="M437.82556,245.39918" transform="translate(-316.33123 -210.99189)" fill="#2f2e41"/><polygon points="483.533 453.271 475.415 458.549 451.193 429.75 463.174 421.96 483.533 453.271" fill="#ffb6b6"/><path d="M805.65683,672.54554,780.69422,688.7771l-.20526-.31565a11.59019,11.59019,0,0,1,3.39785-16.0339l.0006-.00039,2.31017-6.42421,10.757-2.07248,2.17906-1.417Z" transform="translate(-316.33123 -210.99189)" fill="#2f2e41"/><polygon points="344.417 467.102 334.734 467.101 330.128 429.753 344.419 429.754 344.417 467.102" fill="#ffb6b6"/><path d="M661.089,688.19491l-29.77576-.00113v-.37652a11.59019,11.59019,0,0,1,11.58955-11.58938h.00072l5.43891-4.12622,10.14781,4.12688,2.59924.00006Z" transform="translate(-316.33123 -210.99189)" fill="#2f2e41"/><path d="M760.97394,447.63193l-86.82925,1.90912-8.60664,10.7583s.7443-3.79306.08184.373-17.41361,87.23032-14.24713,90.01612-6.00428,22.02-6.6778,23.193-7.93312,59.07023,0,63.831l2.98011,20.209h13.86635s13.89088-16.07513,11.09541-18.98919,5.19983-12.60407,5.5055-17.80015,3.22491-28.7636.96312-32.54239-5.31937-17.96.41839-23.45773,32.49809-73.0567,32.49809-73.0567,7.77641,79.20236,7.75814,85.42135c-.02376,8.08762,5.28725,4.08491,5.28725,11.185,0,1.43445,17.29368,38.30269,28.9164,49.82691l24.035,18.48846,11.09308-8.31981v-12.0175s-10.28024-22.29774-13.86634-25.88384-16.82739-14.5634-16.82739-19.58394-6.23333-6.76964-2.04084-13.42591,2.75806-9.52514,1.32361-12.394,1.28578-120.41494,1.28578-120.41494Z" transform="translate(-316.33123 -210.99189)" fill="#2f2e41"/><circle cx="408.43678" cy="36.10669" r="26.23785" fill="#ffb6b6"/><path d="M745.72926,457.66009l7.38563-22.23281,13.28931,2.44708-8.6449,23.22807a7.84254,7.84254,0,1,1-12.03-3.44234Z" transform="translate(-316.33123 -210.99189)" fill="#ffb6b6"/><path d="M592.55524,414.69389l18.09637-14.8784,9.94172,9.15184L600.901,424.01694a7.84254,7.84254,0,1,1-8.34578-9.323Z" transform="translate(-316.33123 -210.99189)" fill="#ffb6b6"/><path d="M693.35258,242.50852c2.82874.87821,5.5558,1.39589,7.39539-.92442s1.35887-4.9734,4.09519-6.092a9.67876,9.67876,0,0,1,6.98863.32359c.3975.14788.7858.31427,1.16478.48066.2126-.1849.42526-.36048.65636-.52693a8.33692,8.33692,0,0,1,5.9995-1.46055,8.17993,8.17993,0,0,0-3.633,3.46659c.758.379,1.52526.758,2.3018,1.08156a22.69736,22.69736,0,0,0,20.25409-1.53452c-3.03208,7.987-.67482,10.83421,3.77166,18.12792l.17564.4252c-.44371-1.9135,5.3709-4.12289,5.3709-1.34962a33.12537,33.12537,0,0,1-1.84885,8.31981c5.70367-8.58793,9.06859-18.6364,6.8592-28.27813-.47146-2.02449-.68406-4.19686-1.969-5.84236-1.28491-1.63619-3.65143-2.59763-5.51878-1.6732a17.396,17.396,0,0,0-27.99156-12.47971c-2.31106,1.78412-4.13214,4.12294-6.19359,6.20289s-4.502,3.975-7.38619,4.49269c-1.83034.32358-3.89178.12943-5.35239,1.285-1.69171,1.34042-1.71016,3.69769-1.701,5.96254a8.32739,8.32739,0,0,1,4.68683,1.2849,8.14841,8.14841,0,0,0-4.733,1.664.50823.50823,0,0,0-.07391.05546C696.17206,239.3285,696.37547,240.1328,693.35258,242.50852Z" transform="translate(-316.33123 -210.99189)" fill="#2f2e41"/><path d="M370.59011,671.3208a2.26935,2.26935,0,0,1-1.64468-3.93333l.15549-.61819q-.03071-.07428-.06178-.1484a6.09417,6.09417,0,0,0-11.24139.04177c-1.83858,4.42817-4.17942,8.86389-4.75579,13.54594a18.02868,18.02868,0,0,0,.31648,6.20047,72.28149,72.28149,0,0,1-6.57515-30.02077,69.76377,69.76377,0,0,1,.43275-7.78294q.35848-3.17781.9947-6.31034a73.119,73.119,0,0,1,14.50012-30.98962,19.459,19.459,0,0,0,8.09295-8.39652,14.84306,14.84306,0,0,0,1.34992-4.05618c-.394.05168-1.48556-5.94866-1.18841-6.31679-.54906-.83317-1.53178-1.24733-2.13143-2.06035-2.98233-4.0434-7.09121-3.33741-9.23621,2.15727-4.58224,2.31266-4.62659,6.14806-1.815,9.83683,1.78877,2.34681,2.03455,5.52233,3.60408,8.03478-.16151.20671-.32944.407-.4909.61366a73.59114,73.59114,0,0,0-7.681,12.16859,30.59242,30.59242,0,0,0-1.82641-14.20958c-1.74819-4.21732-5.0249-7.76915-7.91045-11.415a6.27922,6.27922,0,0,0-11.184,3.08333q-.00885.08063-.01731.1612.6429.36267,1.25864.76991a3.0782,3.0782,0,0,1-1.24107,5.60175l-.06276.00967a30.62572,30.62572,0,0,0,.80734,4.57938c-3.7018,14.31578,4.29011,19.52989,15.70147,19.76412.25191.12916.49738.25832.74929.38109a75.11519,75.11519,0,0,0-4.04327,19.02779,71.24332,71.24332,0,0,0,.05168,11.50322l-.01939-.13562a18.82569,18.82569,0,0,0-6.4266-10.87028c-4.94561-4.06263-11.93282-5.55868-17.26826-8.82425a3.533,3.533,0,0,0-5.41121,3.43708l.02182.14261a20.67715,20.67715,0,0,1,2.31871,1.11733q.6429.36276,1.25864.76992a3.07824,3.07824,0,0,1-1.24107,5.6018l-.06282.00965c-.0452.00645-.084.01294-.12911.01943a30.65424,30.65424,0,0,0,5.63854,8.82923c2.31463,12.49712,12.256,13.68282,22.89022,10.04353h.00648a75.09324,75.09324,0,0,0,5.0444,14.72621h18.02019c.06463-.20022.12274-.40693.18089-.60717a20.47425,20.47425,0,0,1-4.98629-.297c1.337-1.64058,2.674-3.29409,4.011-4.93462a1.12094,1.12094,0,0,0,.084-.09689c.67817-.8396,1.36282-1.67283,2.041-2.51246l.00036-.001a29.99039,29.99039,0,0,0-.87876-7.63984Z" transform="translate(-316.33123 -210.99189)" fill="#f2f2f2"/><path d="M316.99872,687.8181a1.18647,1.18647,0,0,0,1.19006,1.19h564.29a1.19,1.19,0,1,0,0-2.38h-564.29A1.18651,1.18651,0,0,0,316.99872,687.8181Z" transform="translate(-316.33123 -210.99189)" fill="#ccc"/><path d="M503.21324,366.02229c.11108,2.27923.242,4.55993.394,6.82037h11.26147l-.16064-.11114A121.19154,121.19154,0,0,0,503.21324,366.02229Z" transform="translate(-316.33123 -210.99189)" fill="none"/><path d="M410.2675,459.53694l14.06518.69836,7.80573-32.74383c17.946-4.035,22.2027-15.06934,28.65466-13.17,28.62164,8.42591,62.63757,7.53272,51.0625-4.04229-4.74591-4.74592-7.10968-20.50007-8.24835-37.43653h-87.3656Z" transform="translate(-316.33123 -210.99189)" fill="#fed701"/><polygon points="198.537 161.851 260.993 205.057 270.992 195.141 236.689 161.851 198.537 161.851" fill="#fed701"/><path d="M524.86045,345.51393,502.855,322.038c.00745-.24567.01209-.38575.01209-.38575l-.67084-.317-6.40094-6.82868a19.86687,19.86687,0,0,0-14.21124-6.32605,20.38863,20.38863,0,0,0-2.27344.09186l-3.39716-8.32233-28.41583-6.02771-5.64209,11.35682-11.01691,6.37823a19.90078,19.90078,0,0,0-6.907,3.99872l-1.07611.62305.07977.327a19.83782,19.83782,0,0,0-5.77026,13.60449l-.9137,42.49006-.00976.1419h87.3656c-.152-2.26044-.2829-4.54114-.394-6.82037a121.19154,121.19154,0,0,1,11.49481,6.70923l.16064.11114h38.15186Z" transform="translate(-316.33123 -210.99189)" fill="#015abb"/><path d="M611.318,392.87709c2.27094,4.48822-.91931,1.46-4.48822,2.271-3.56884.811-1.83856,2.91986-1.75756,6.02912s-12.19391,9.65173-12.19391,9.65173c7.48907,2.67682,16.87048,13.68109,16.87048,13.68109s9.08459-9.57068,10.73389-10.571c1.64929-1.00037,2.5686-2.46027,7.78674-4.27161,5.21814-1.81128,3.0282-3.19025,3.40686-7.02942.3786-3.83917,1.64923-1.0003,8.97632-4.54187s1.379-2.18994,3.40686-7.02948c2.028-4.83954,1.379-2.18994,7.976-6.19116,3.96527-2.405,7.90363-5.937,13.38385-12.03284H623.60667C615.89482,383.49586,610.64372,391.54438,611.318,392.87709Z" transform="translate(-316.33123 -210.99189)" fill="#fed701"/><path d="M787.93772,362.77778c1.46534-12.21081-.38806-25.25134-2.27172-34.26721a21.71579,21.71579,0,0,0-10.05811-14.16748c-.19122-.97931-.53076-1.60571-1.05237-1.79114-7.4577-2.65118-28.277-14.89917-28.277-14.89917l-1.745-14.00555L706.86,281.83711l-9.6405,15.81567s-24.97168,2.51007-24.50867,11.65161c-6.0476,7.54328-32.9685,41.2486-49.10412,63.53827h41.81268c3.63733-4.0459,7.95258-9.21905,13.41046-15.94934.037-.04565.072-.09326.10889-.139.36664,5.45569.64917,10.91358.81714,16.08832H786.67033C787.07621,369.80805,787.49418,366.47413,787.93772,362.77778Z" transform="translate(-316.33123 -210.99189)" fill="#015abb"/><path d="M786.67033,372.84266H679.75584c.47723,14.70325.02179,27.1012-2.11847,30.51544-3.00378,4.792-8.08868,20.82911-12.222,34.90961a17.99512,17.99512,0,0,0,17.8592,23.04614c25.64154-.84546,63.16418-2.80151,70.47711-7.09308a81.01443,81.01443,0,0,1,11.75751,2.58448s2.58789-12.93958,3.4505-14.66486c.86267-1.72528.86267-3.4505,4.31317-7.76373,3.45056-4.31317.86261-4.31317-.86261-7.76373-1.72528-3.4505.86261-1.72529,5.17584-8.62641,4.31323-6.90106,0-2.58789-.86267-7.76373-.86261-5.17584,0-2.58789,3.45056-9.489C783.03312,395.01557,784.708,387.51283,786.67033,372.84266Z" transform="translate(-316.33123 -210.99189)" fill="#fed701"/><path d="M429.15319,257.51923c-3.52921-12.86713,24.9356-23.90094,32.41042-13.539,1.03939-1.47315,4.88056-2.368,6.643-1.91607a13.74437,13.74437,0,0,1,4.69075,2.67529c1.98838,1.52743,4.049,3.10908,5.26914,5.30532,1.22921,2.18719,1.419,5.16979-.235,7.06776-1.31052,1.50934-5.17883,2.48546-7.14912,2.88314-1.37374.28018-2.53064.50613-3.5248.6688a6.7391,6.7391,0,0,1-1.175-4.45574,5.46969,5.46969,0,0,0-2.386,4.01289c-.02714.3344,11.10773,41.30387,11.10773,41.30387a24.28681,24.28681,0,0,1-4.20271,1.88892,52.84817,52.84817,0,0,1-6.55258-14.2801,45.762,45.762,0,0,0,.12654,10.1678,55.94989,55.94989,0,0,0,.958,5.63068c-13.23171,2.85606-33.13344,1.91612-41.7919-10.231l-.00436-.15087a2.067,2.067,0,0,0-3.993-.72083c-.21008.53593-.40341.99981-.57594,1.36878C416.2469,286.17883,419.50962,275.7399,429.15319,257.51923Z" transform="translate(-316.33123 -210.99189)" fill="#2f2e41"/><path d="M593.27235,331.109l0,0c-.03377.0328-.06487.06731-.09825.10039a13.47172,13.47172,0,0,0-18.874-.10235l0,0a13.47215,13.47215,0,0,0-.40092,18.92054l-.00328.00319.1261.12984,0,0,18.64936,19.20183L612.003,350.587l-.05375-.05534c.03249-.03093.06627-.05964.09853-.091l0,0a13.47433,13.47433,0,0,0,.27811-19.05355l0,0A13.47433,13.47433,0,0,0,593.27235,331.109Z" transform="translate(-316.33123 -210.99189)" fill="#3b82f6"/></svg>